<?xml version="1.0" encoding="UTF-8"?>
<svg xmlns="http://www.w3.org/2000/svg" xmlns:xlink="http://www.w3.org/1999/xlink" width="302pt" height="88pt" viewBox="0 0 302 88" version="1.1">
<g id="surface1">
<path style=" stroke:none;fill-rule:nonzero;fill:rgb(100%,96.099854%,47.499084%);fill-opacity:1;" d="M 0.296875 0.195313 L 301.703125 0.195313 L 301.703125 87.804688 L 0.296875 87.804688 L 0.296875 0.195313 "/>
<path style=" stroke:none;fill-rule:evenodd;fill:rgb(84.298706%,9.799194%,12.5%);fill-opacity:1;" d="M 9.816406 30.332031 C 9.816406 24.511719 11.875 19.738281 15.992188 16.015625 C 20.109375 12.289063 25.667969 10.425781 32.667969 10.425781 L 48.109375 10.425781 L 48.109375 29.371094 L 37.816406 29.371094 C 34.523438 29.371094 32.480469 29.992188 31.691406 31.234375 C 30.902344 32.476563 30.507813 34.445313 30.507813 37.144531 L 48.109375 37.144531 L 48.109375 54.707031 L 30.507813 54.707031 L 30.507813 78.121094 L 9.816406 78.121094 L 9.816406 30.332031 "/>
<path style=" stroke:none;fill-rule:evenodd;fill:rgb(84.298706%,9.799194%,12.5%);fill-opacity:1;" d="M 54.285156 10.425781 L 74.976563 10.425781 L 74.976563 78.121094 L 54.285156 78.121094 L 54.285156 10.425781 "/>
<path style=" stroke:none;fill-rule:evenodd;fill:rgb(84.298706%,9.799194%,12.5%);fill-opacity:1;" d="M 84.035156 10.425781 L 104.730469 10.425781 L 104.730469 78.121094 L 84.035156 78.121094 L 84.035156 10.425781 "/>
<path style=" stroke:none;fill-rule:evenodd;fill:rgb(84.298706%,9.799194%,12.5%);fill-opacity:1;" d="M 120.066406 29.371094 L 109.050781 29.371094 L 109.050781 10.425781 L 151.667969 10.425781 L 151.667969 29.371094 L 140.757813 29.371094 L 140.757813 78.121094 L 120.066406 78.121094 L 120.066406 29.371094 "/>
<path style=" stroke:none;fill-rule:evenodd;fill:rgb(84.298706%,9.799194%,12.5%);fill-opacity:1;" d="M 154.550781 58.429688 L 161.859375 58.429688 C 165.496094 58.429688 167.625 58.074219 168.242188 57.367188 C 168.859375 56.65625 169.167969 54.953125 169.167969 52.257813 L 169.167969 10.425781 L 189.859375 10.425781 L 189.859375 57.683594 C 189.859375 63.71875 187.871094 68.632813 183.890625 72.425781 C 179.910156 76.222656 174.761719 78.121094 168.449219 78.121094 L 154.550781 78.121094 L 154.550781 58.429688 "/>
<path style=" stroke:none;fill-rule:evenodd;fill:rgb(84.298706%,9.799194%,12.5%);fill-opacity:1;" d="M 231.449219 78.121094 C 221.019531 78.121094 213.195313 74.699219 207.980469 67.851563 C 202.761719 61.003906 200.15625 53.464844 200.15625 45.230469 L 200.15625 43.742188 C 200.496094 35.441406 203.414063 27.8125 208.902344 20.859375 C 214.394531 13.902344 222.390625 10.425781 232.890625 10.425781 L 243.082031 10.425781 L 243.082031 27.882813 L 236.492188 27.882813 C 235.945313 27.882813 235.394531 27.902344 234.847656 27.9375 C 234.296875 27.972656 233.746094 28.058594 233.199219 28.203125 C 230.726563 28.628906 228.410156 29.550781 226.25 30.96875 C 224.089844 32.386719 222.871094 34.199219 222.597656 36.398438 L 243.082031 36.398438 L 243.082031 52.257813 L 222.597656 52.257813 C 222.664063 52.613281 222.785156 53.003906 222.957031 53.429688 C 223.128906 53.855469 223.316406 54.242188 223.523438 54.597656 C 224.347656 55.945313 225.546875 57.1875 227.125 58.324219 C 228.703125 59.460938 230.625 60.027344 232.890625 60.027344 L 243.082031 60.027344 L 243.082031 78.121094 L 231.449219 78.121094 "/>
<path style=" stroke:none;fill-rule:evenodd;fill:rgb(84.298706%,9.799194%,12.5%);fill-opacity:1;" d="M 282.097656 78.121094 C 271.664063 78.121094 263.839844 74.699219 258.625 67.851563 C 253.410156 61.003906 250.800781 53.464844 250.800781 45.230469 L 250.800781 43.742188 C 251.144531 35.441406 254.0625 27.8125 259.550781 20.859375 C 265.042969 13.902344 273.035156 10.425781 283.535156 10.425781 L 293.726563 10.425781 L 293.726563 27.882813 L 287.140625 27.882813 C 286.589844 27.882813 286.039063 27.902344 285.492188 27.9375 C 284.945313 27.972656 284.394531 28.058594 283.847656 28.203125 C 281.375 28.628906 279.058594 29.550781 276.898438 30.96875 C 274.734375 32.386719 273.515625 34.199219 273.242188 36.398438 L 293.726563 36.398438 L 293.726563 52.257813 L 273.242188 52.257813 C 273.3125 52.613281 273.433594 53.003906 273.601563 53.429688 C 273.773438 53.855469 273.964844 54.242188 274.167969 54.597656 C 274.992188 55.945313 276.195313 57.1875 277.773438 58.324219 C 279.351563 59.460938 281.273438 60.027344 283.535156 60.027344 L 293.726563 60.027344 L 293.726563 78.121094 L 282.097656 78.121094 "/>
</g>
</svg>
